o Tetrahedron
v -1.5773502588272095 -0.5773502588272095 0.5773502588272095
v -0.4226497411727905 0.5773502588272095 0.5773502588272095
v -1.5773502588272095 0.5773502588272095 -0.5773502588272095
v -0.4226497411727905 -0.5773502588272095 -0.5773502588272095
v -1.5773502588272095 0.5773502588272095 -0.5773502588272095
v -0.4226497411727905 0.5773502588272095 0.5773502588272095
v -0.4226497411727905 -0.5773502588272095 -0.5773502588272095
v -0.4226497411727905 0.5773502588272095 0.5773502588272095
v -1.5773502588272095 -0.5773502588272095 0.5773502588272095
v -0.4226497411727905 -0.5773502588272095 -0.5773502588272095
v -1.5773502588272095 -0.5773502588272095 0.5773502588272095
v -1.5773502588272095 0.5773502588272095 -0.5773502588272095
vt 0.625 0.30408671498298645
vt 0.875 0.6959132552146912
vt 0.375 0.6959132552146912
vt 0.125 0.30408671498298645
vt 0.375 0.6959132552146912
vt 0.875 0.6959132552146912
vt 0.125 0.30408671498298645
vt 0.875 0.6959132552146912
vt 0.625 0.30408671498298645
vt 0.125 0.30408671498298645
vt 0.625 0.30408671498298645
vt 0.375 0.6959132552146912
vn -0.5773502691896257 0.5773502691896257 0.5773502691896257
vn -0.5773502691896257 0.5773502691896257 0.5773502691896257
vn -0.5773502691896257 0.5773502691896257 0.5773502691896257
vn 0.5773502691896257 0.5773502691896257 -0.5773502691896257
vn 0.5773502691896257 0.5773502691896257 -0.5773502691896257
vn 0.5773502691896257 0.5773502691896257 -0.5773502691896257
vn 0.5773502691896257 -0.5773502691896257 0.5773502691896257
vn 0.5773502691896257 -0.5773502691896257 0.5773502691896257
vn 0.5773502691896257 -0.5773502691896257 0.5773502691896257
vn -0.5773502691896257 -0.5773502691896257 -0.5773502691896257
vn -0.5773502691896257 -0.5773502691896257 -0.5773502691896257
vn -0.5773502691896257 -0.5773502691896257 -0.5773502691896257
f 1/1/1 2/2/2 3/3/3
f 4/4/4 5/5/5 6/6/6
f 7/7/7 8/8/8 9/9/9
f 10/10/10 11/11/11 12/12/12
o Tetrahedron
v 0.5773502588272094 0.5773502588272089 -1.5773502588272095
v 0.5773502588272094 -0.5773502588272091 -0.4226497411727903
v -0.5773502588272096 -0.5773502588272094 -1.5773502588272093
v -0.5773502588272091 0.5773502588272096 -0.42264974117279097
v -0.5773502588272096 -0.5773502588272094 -1.5773502588272093
v 0.5773502588272094 -0.5773502588272091 -0.4226497411727903
v -0.5773502588272091 0.5773502588272096 -0.42264974117279097
v 0.5773502588272094 -0.5773502588272091 -0.4226497411727903
v 0.5773502588272094 0.5773502588272089 -1.5773502588272095
v -0.5773502588272091 0.5773502588272096 -0.42264974117279097
v 0.5773502588272094 0.5773502588272089 -1.5773502588272095
v -0.5773502588272096 -0.5773502588272094 -1.5773502588272093
vt 0.625 0.30408671498298645
vt 0.875 0.6959132552146912
vt 0.375 0.6959132552146912
vt 0.125 0.30408671498298645
vt 0.375 0.6959132552146912
vt 0.875 0.6959132552146912
vt 0.125 0.30408671498298645
vt 0.875 0.6959132552146912
vt 0.625 0.30408671498298645
vt 0.125 0.30408671498298645
vt 0.625 0.30408671498298645
vt 0.375 0.6959132552146912
vn 0.5773502691896256 -0.5773502691896261 -0.5773502691896255
vn 0.5773502691896256 -0.5773502691896261 -0.5773502691896255
vn 0.5773502691896256 -0.5773502691896261 -0.5773502691896255
vn -0.5773502691896258 -0.5773502691896254 0.577350269189626
vn -0.5773502691896258 -0.5773502691896254 0.577350269189626
vn -0.5773502691896258 -0.5773502691896254 0.577350269189626
vn 0.5773502691896257 0.577350269189626 0.5773502691896254
vn 0.5773502691896257 0.577350269189626 0.5773502691896254
vn 0.5773502691896257 0.577350269189626 0.5773502691896254
vn -0.5773502691896255 0.5773502691896257 -0.5773502691896258
vn -0.5773502691896255 0.5773502691896257 -0.5773502691896258
vn -0.5773502691896255 0.5773502691896257 -0.5773502691896258
f 13/13/13 14/14/14 15/15/15
f 16/16/16 17/17/17 18/18/18
f 19/19/19 20/20/20 21/21/21
f 22/22/22 23/23/23 24/24/24
o Tetrahedron
v 0.5773502588272094 0.5773502588272089 0.4226497411727905
v 0.5773502588272094 -0.5773502588272091 1.5773502588272097
v -0.5773502588272096 -0.5773502588272094 0.42264974117279075
v -0.5773502588272091 0.5773502588272096 1.577350258827209
v -0.5773502588272096 -0.5773502588272094 0.42264974117279075
v 0.5773502588272094 -0.5773502588272091 1.5773502588272097
v -0.5773502588272091 0.5773502588272096 1.577350258827209
v 0.5773502588272094 -0.5773502588272091 1.5773502588272097
v 0.5773502588272094 0.5773502588272089 0.4226497411727905
v -0.5773502588272091 0.5773502588272096 1.577350258827209
v 0.5773502588272094 0.5773502588272089 0.4226497411727905
v -0.5773502588272096 -0.5773502588272094 0.42264974117279075
vt 0.625 0.30408671498298645
vt 0.875 0.6959132552146912
vt 0.375 0.6959132552146912
vt 0.125 0.30408671498298645
vt 0.375 0.6959132552146912
vt 0.875 0.6959132552146912
vt 0.125 0.30408671498298645
vt 0.875 0.6959132552146912
vt 0.625 0.30408671498298645
vt 0.125 0.30408671498298645
vt 0.625 0.30408671498298645
vt 0.375 0.6959132552146912
vn 0.5773502691896256 -0.5773502691896261 -0.5773502691896255
vn 0.5773502691896256 -0.5773502691896261 -0.5773502691896255
vn 0.5773502691896256 -0.5773502691896261 -0.5773502691896255
vn -0.5773502691896258 -0.5773502691896254 0.577350269189626
vn -0.5773502691896258 -0.5773502691896254 0.577350269189626
vn -0.5773502691896258 -0.5773502691896254 0.577350269189626
vn 0.5773502691896257 0.577350269189626 0.5773502691896254
vn 0.5773502691896257 0.577350269189626 0.5773502691896254
vn 0.5773502691896257 0.577350269189626 0.5773502691896254
vn -0.5773502691896255 0.5773502691896257 -0.5773502691896258
vn -0.5773502691896255 0.5773502691896257 -0.5773502691896258
vn -0.5773502691896255 0.5773502691896257 -0.5773502691896258
f 25/25/25 26/26/26 27/27/27
f 28/28/28 29/29/29 30/30/30
f 31/31/31 32/32/32 33/33/33
f 34/34/34 35/35/35 36/36/36
o Tetrahedron
v 0.4226497411727905 -0.5773502588272095 0.5773502588272095
v 1.5773502588272095 0.5773502588272095 0.5773502588272095
v 0.4226497411727905 0.5773502588272095 -0.5773502588272095
v 1.5773502588272095 -0.5773502588272095 -0.5773502588272095
v 0.4226497411727905 0.5773502588272095 -0.5773502588272095
v 1.5773502588272095 0.5773502588272095 0.5773502588272095
v 1.5773502588272095 -0.5773502588272095 -0.5773502588272095
v 1.5773502588272095 0.5773502588272095 0.5773502588272095
v 0.4226497411727905 -0.5773502588272095 0.5773502588272095
v 1.5773502588272095 -0.5773502588272095 -0.5773502588272095
v 0.4226497411727905 -0.5773502588272095 0.5773502588272095
v 0.4226497411727905 0.5773502588272095 -0.5773502588272095
vt 0.625 0.30408671498298645
vt 0.875 0.6959132552146912
vt 0.375 0.6959132552146912
vt 0.125 0.30408671498298645
vt 0.375 0.6959132552146912
vt 0.875 0.6959132552146912
vt 0.125 0.30408671498298645
vt 0.875 0.6959132552146912
vt 0.625 0.30408671498298645
vt 0.125 0.30408671498298645
vt 0.625 0.30408671498298645
vt 0.375 0.6959132552146912
vn -0.5773502691896257 0.5773502691896257 0.5773502691896257
vn -0.5773502691896257 0.5773502691896257 0.5773502691896257
vn -0.5773502691896257 0.5773502691896257 0.5773502691896257
vn 0.5773502691896257 0.5773502691896257 -0.5773502691896257
vn 0.5773502691896257 0.5773502691896257 -0.5773502691896257
vn 0.5773502691896257 0.5773502691896257 -0.5773502691896257
vn 0.5773502691896257 -0.5773502691896257 0.5773502691896257
vn 0.5773502691896257 -0.5773502691896257 0.5773502691896257
vn 0.5773502691896257 -0.5773502691896257 0.5773502691896257
vn -0.5773502691896257 -0.5773502691896257 -0.5773502691896257
vn -0.5773502691896257 -0.5773502691896257 -0.5773502691896257
vn -0.5773502691896257 -0.5773502691896257 -0.5773502691896257
f 37/37/37 38/38/38 39/39/39
f 40/40/40 41/41/41 42/42/42
f 43/43/43 44/44/44 45/45/45
f 46/46/46 47/47/47 48/48/48
