o Tetrahedron
v -0.6350852847099304 -0.6350852847099304 0.6350852847099304
v 0.6350852847099304 0.6350852847099304 0.6350852847099304
v -0.6350852847099304 0.6350852847099304 -0.6350852847099304
v 0.6350852847099304 -0.6350852847099304 -0.6350852847099304
v -0.6350852847099304 0.6350852847099304 -0.6350852847099304
v 0.6350852847099304 0.6350852847099304 0.6350852847099304
v 0.6350852847099304 -0.6350852847099304 -0.6350852847099304
v 0.6350852847099304 0.6350852847099304 0.6350852847099304
v -0.6350852847099304 -0.6350852847099304 0.6350852847099304
v 0.6350852847099304 -0.6350852847099304 -0.6350852847099304
v -0.6350852847099304 -0.6350852847099304 0.6350852847099304
v -0.6350852847099304 0.6350852847099304 -0.6350852847099304
vt 0.625 0.30408671498298645
vt 0.875 0.6959132552146912
vt 0.375 0.6959132552146912
vt 0.125 0.30408671498298645
vt 0.375 0.6959132552146912
vt 0.875 0.6959132552146912
vt 0.125 0.30408671498298645
vt 0.875 0.6959132552146912
vt 0.625 0.30408671498298645
vt 0.125 0.30408671498298645
vt 0.625 0.30408671498298645
vt 0.375 0.6959132552146912
vn -0.5773502691896257 0.5773502691896257 0.5773502691896257
vn -0.5773502691896257 0.5773502691896257 0.5773502691896257
vn -0.5773502691896257 0.5773502691896257 0.5773502691896257
vn 0.5773502691896257 0.5773502691896257 -0.5773502691896257
vn 0.5773502691896257 0.5773502691896257 -0.5773502691896257
vn 0.5773502691896257 0.5773502691896257 -0.5773502691896257
vn 0.5773502691896257 -0.5773502691896257 0.5773502691896257
vn 0.5773502691896257 -0.5773502691896257 0.5773502691896257
vn 0.5773502691896257 -0.5773502691896257 0.5773502691896257
vn -0.5773502691896257 -0.5773502691896257 -0.5773502691896257
vn -0.5773502691896257 -0.5773502691896257 -0.5773502691896257
vn -0.5773502691896257 -0.5773502691896257 -0.5773502691896257
f 1/1/1 2/2/2 3/3/3
f 4/4/4 5/5/5 6/6/6
f 7/7/7 8/8/8 9/9/9
f 10/10/10 11/11/11 12/12/12
